Coordinates
version=1
nRows=19
nColumns=24
inDegrees=yes

Units are S.I. units (second, meters, Newtons, ...)
Angles are in degrees.

endheader
time	pelvis_tilt	pelvis_list	pelvis_rotation	pelvis_tx	pelvis_ty	pelvis_tz	hip_flexion_r	hip_adduction_r	hip_rotation_r	knee_angle_r	ankle_angle_r	subtalar_angle_r	mtp_angle_r	hip_flexion_l	hip_adduction_l	hip_rotation_l	knee_angle_l	ankle_angle_l	subtalar_angle_l	mtp_angle_l	lumbar_extension	lumbar_bending	lumbar_rotation
      3.71500000	     -4.31212024	      1.49560311	      2.80519384	     -1.49702067	     -0.02064817	      0.41999715	     32.18012973	     -2.56314042	     -6.05893424	    -42.97483871	     -4.24544125	      7.86985230	     23.60097359	     -3.10098929	      6.91455932	     16.19488604	    -11.32685369	      8.54479202	     10.62681964	      7.84436258	      3.98909939	     -1.37996922	     -6.19946317
      3.72000000	     -4.21002172	      1.27517429	      3.07138650	     -1.48978417	     -0.02091255	      0.42006440	     32.29812148	     -2.31899019	     -6.07982126	    -41.16701248	     -3.71168073	      8.40556284	     23.28069572	     -3.90235273	      6.52522692	     16.27805840	    -10.90840930	      8.69550822	     10.95244497	      8.09115553	      3.79918565	     -1.22174080	     -6.64846953
      3.72500000	     -4.06914511	      1.06104397	      3.30909239	     -1.48258892	     -0.02119706	      0.42027254	     32.35113536	     -2.04285014	     -5.99796628	    -39.32834934	     -3.20771932	      8.97154106	     22.82098924	     -4.72771786	      6.12496974	     16.32348779	    -10.50844092	      8.83943268	     11.34337532	      8.40063003	      3.55116101	     -1.08626451	     -7.12613477
      3.73000000	     -3.96881081	      0.83420204	      3.54790057	     -1.47535862	     -0.02159917	      0.42047115	     32.41215103	     -1.75420594	     -5.87105688	    -37.45019823	     -2.70379960	      9.53760083	     22.32539190	     -5.48136964	      5.71670086	     16.34566960	    -10.15999115	      8.99637880	     11.73612405	      8.72705090	      3.35606916	     -0.93089831	     -7.57246594
      3.73500000	     -3.89608828	      0.59300744	      3.78465649	     -1.46808742	     -0.02210603	      0.42068739	     32.46682937	     -1.44715647	     -5.69542996	    -35.53637594	     -2.20749533	     10.05805690	     21.79451558	     -6.17670446	      5.29685100	     16.34036811	     -9.86577327	      9.17076816	     12.12984021	      9.05343182	      3.19886519	     -0.75898465	     -7.99287208
      3.74000000	     -3.80337861	      0.35665676	      4.01251324	     -1.46083593	     -0.02264467	      0.42097304	     32.47271835	     -1.12173953	     -5.39928247	    -33.61221485	     -1.76427773	     10.53452310	     21.06269880	     -6.86992165	      4.87314365	     16.30037547	     -9.60762086	      9.35687219	     12.60408536	      9.42308382	      3.01232473	     -0.59744900	     -8.43301926
      3.74500000	     -3.74101842	      0.12605559	      4.23462133	     -1.45358405	     -0.02327842	      0.42128620	     32.48614287	     -0.79282824	     -4.99632143	    -31.68958483	     -1.36578259	     10.93473786	     20.16361187	     -7.49871610	      4.46021527	     16.23409343	     -9.40782338	      9.55953668	     13.11153000	      9.79669124	      2.85389231	     -0.44186738	     -8.86066052
      3.75000000	     -3.71641284	     -0.08958279	      4.40514555	     -1.44626646	     -0.02404588	      0.42164538	     32.52519950	     -0.45525186	     -4.46088338	    -29.80640911	     -0.92379749	     11.31705107	     18.98746877	     -8.06835760	      4.07516502	     16.05968286	     -9.25158181	      9.78610041	     13.65799179	     10.16190507	      2.74988716	     -0.29273262	     -9.19948530
      3.75500000	     -3.69761680	     -0.31768184	      4.67760678	     -1.43902308	     -0.02483374	      0.42189543	     32.52617703	     -0.16302850	     -3.91643099	    -27.88961705	     -0.68092643	     11.43199912	     17.97469796	     -8.57478937	      3.67646046	     16.02463492	     -9.19766150	     10.03423798	     14.19052764	     10.45757236	      2.63557922	     -0.13991031	     -9.67600589
      3.76000000	     -3.69149888	     -0.54598471	      4.89303527	     -1.43166029	     -0.02571508	      0.42221023	     32.52072928	      0.15432776	     -3.24941216	    -26.02203300	     -0.42084306	     11.44446279	     16.70426606	     -9.05406916	      3.28356391	     15.84348284	     -9.18052984	     10.31772670	     14.81313763	     10.75699624	      2.55535673	      0.02023326	    -10.06443232
      3.76500000	     -3.71484377	     -0.75434110	      5.15644825	     -1.42430541	     -0.02668962	      0.42248943	     32.52511297	      0.41779643	     -2.52461907	    -24.19809328	     -0.22419903	     11.23617605	     15.40047024	     -9.46140530	      2.91372329	     15.73510645	     -9.24514349	     10.62537139	     15.45015394	     11.02063023	      2.50380835	      0.14978597	    -10.47004919
      3.77000000	     -3.86241412	     -0.98659222	      5.51642401	     -1.41689026	     -0.02778130	      0.42253511	     32.64567535	      0.58582577	     -1.98881652	    -22.41099212	     -0.20953792	     10.93080776	     14.43948464	     -9.69430690	      2.54193339	     15.79848196	     -9.38046856	     10.85989615	     15.89459467	     11.22783088	      2.61153698	      0.30522631	    -11.03083078
      3.77500000	     -3.81511836	     -1.19297558	      5.63419077	     -1.40940336	     -0.02880680	      0.42299410	     32.56112723	      0.92383218	     -0.96271332	    -20.78280651	     -0.02667303	     10.45096150	     12.31755138	    -10.14257478	      2.17169416	     15.28182091	     -9.52877516	     11.30519207	     16.92886190	     11.48634071	      2.49796371	      0.46735643	    -11.25000915
      3.78000000	     -3.93784828	     -1.38535824	      5.93562705	     -1.40197495	     -0.03001356	      0.42313913	     32.66491220	      1.07193123	     -0.23038653	    -19.26086631	      0.08538330	      9.93353084	     10.52892271	    -10.32344372	      1.84331168	     15.07482189	     -9.83183082	     11.71274568	     17.74867246	     11.59230265	      2.56854316	      0.59307191	    -11.69477998
      3.78500000	     -4.03255994	     -1.53521192	      6.23346708	     -1.39461243	     -0.03125838	      0.42326767	     32.75689416	      1.16019920	      0.49692351	    -17.88622909	      0.22980980	      9.38269985	      8.66529364	    -10.48050390	      1.56613563	     14.75744532	    -10.23778828	     12.14981630	     18.66610672	     11.65015143	      2.58852909	      0.68522270	    -12.12959727
      3.79000000	     -4.19535087	     -1.72045254	      6.52592477	     -1.38708504	     -0.03258869	      0.42340551	     32.92506248	      1.25468312	      1.12224468	    -16.62876280	      0.29682754	      8.77064492	      6.92587226	    -10.56309712	      1.25061045	     14.49537153	    -10.65645258	     12.56886713	     19.58540845	     11.71261406	      2.72076261	      0.80964089	    -12.52406309
      3.79500000	     -4.35617466	     -1.89576701	      6.83481028	     -1.37956430	     -0.03395531	      0.42350777	     33.11131369	      1.30818013	      1.64504958	    -15.53488306	      0.41348965	      8.20573295	      5.16609788	    -10.59754219	      0.94737088	     14.16731576	    -11.16659929	     12.99724223	     20.57415738	     11.73881862	      2.84799385	      0.92858499	    -12.93785381
      3.80000000	     -4.53068362	     -2.07414380	      7.14508771	     -1.37199744	     -0.03537038	      0.42361204	     33.33076588	      1.34563141	      2.06807305	    -14.59983378	      0.54815682	      7.67898129	      3.50352510	    -10.58524018	      0.64088427	     13.82369698	    -11.73896937	     13.41348819	     21.58608989	     11.74733095	      2.99849156	      1.05346398	    -13.32966347
      3.80500000	     -4.70534114	     -2.27816509	      7.46460101	     -1.36436990	     -0.03683056	      0.42368945	     33.56790168	      1.38684781	      2.36571971	    -13.82105601	      0.69794811	      7.20084950	      2.02198804	    -10.53613420	      0.30678780	     13.47482998	    -12.37706797	     13.81481652	     22.59157077	     11.78057971	      3.16319336	      1.21386753	    -13.69616068
